<svg width="22" height="21" viewBox="0 0 22 21" fill="none" xmlns="http://www.w3.org/2000/svg">
<path d="M20.6955 0.469971L0.488953 20.2701H6.77835L8.62444 17.6455L19.08 2.76915L20.6955 0.469971Z" fill="url(#paint0_linear_153001_17)"/>
<path d="M14.7395 0.469971L14.0936 1.36811L3.95299 15.4556L0.488953 20.2701L20.6955 0.469971H14.7395Z" fill="url(#paint1_linear_153001_17)"/>
<path d="M18.6952 16.8124L18.4342 16.4428C18.2164 16.1343 17.8622 15.9512 17.4862 15.9512H12.7328C12.5569 15.9512 12.4203 16.0556 12.3552 16.1946L21.1414 20.27L18.6952 16.8124Z" fill="#F69300"/>
<path d="M12.3552 16.1948C12.2973 16.3185 12.2965 16.4696 12.3825 16.6013L13.3586 18.0867H13.361L14.7966 20.2702H21.1422L12.356 16.1948H12.3552Z" fill="url(#paint2_linear_153001_17)"/>
<path d="M9.49845 4.13477L7.99378 1.92556L7.00246 0.470703H0.794189L9.40125 4.70515C9.56995 4.57902 9.63342 4.3332 9.49926 4.13477H9.49845Z" fill="url(#paint3_linear_153001_17)"/>
<path d="M0.793457 0.47004L3.4421 4.28835C3.45335 4.30361 3.46378 4.31647 3.47503 4.33173C3.69434 4.61853 4.03416 4.78803 4.39727 4.78803H9.15309C9.2503 4.78803 9.33304 4.75429 9.40132 4.70368L0.794261 0.469238L0.793457 0.47004Z" fill="#F69300"/>
<defs>
<linearGradient id="paint0_linear_153001_17" x1="16.1558" y1="5.78331" x2="8.3272" y2="14.8402" gradientUnits="userSpaceOnUse">
<stop stop-color="#FFAC00"/>
<stop offset="1" stop-color="#FE7801"/>
</linearGradient>
<linearGradient id="paint1_linear_153001_17" x1="0.488953" y1="10.3704" x2="20.6955" y2="10.3704" gradientUnits="userSpaceOnUse">
<stop stop-color="#FFCE00"/>
<stop offset="1" stop-color="#FFB003"/>
</linearGradient>
<linearGradient id="paint2_linear_153001_17" x1="12.3142" y1="18.2329" x2="21.1414" y2="18.2329" gradientUnits="userSpaceOnUse">
<stop stop-color="#FE8B01"/>
<stop offset="1" stop-color="#FE7801"/>
</linearGradient>
<linearGradient id="paint3_linear_153001_17" x1="0.793386" y1="2.58752" x2="9.57156" y2="2.58752" gradientUnits="userSpaceOnUse">
<stop stop-color="#FFCE00"/>
<stop offset="1" stop-color="#FFC101"/>
</linearGradient>
</defs>
</svg>
